# This file uses centimeters as units for non-parametric coordinates.

v 0.000000 0.300000 0.000000
v -0.500000 0.309789 -0.061803
v -0.500000 0.300000 0.000000
v 0.000000 0.300000 -0.500000
v -0.061803 0.309789 -0.500000
v 0.061803 0.309789 -0.500000
v -0.500000 0.309789 0.061803
v 0.117557 0.338197 -0.500000
v -0.500000 0.338197 0.117557
v -0.500000 0.438197 0.190211
v -0.500000 0.500000 0.200000
v 0.200000 0.500000 -0.500000
v 0.190211 0.438197 -0.500000
v 0.161803 0.382443 -0.500000
v -0.500000 0.382443 0.161803
v -0.500000 0.500000 0.500000
v -0.200000 0.500000 0.500000
v 0.500000 0.500000 -0.200000
v 0.500000 0.500000 -0.500000
v 0.500000 0.309789 -0.061803
v 0.500000 0.338197 -0.117557
v -0.117557 0.338197 0.500000
v -0.061803 0.309789 0.500000
v 0.500000 0.300000 0.000000
v 0.000000 0.300000 0.500000
v 0.500000 0.309788 0.061803
v 0.061803 0.309789 0.500000
v 0.117557 0.338197 0.500000
v 0.500000 0.338197 0.117557
v 0.500000 0.382443 -0.161803
v -0.161803 0.382443 0.500000
v 0.500000 0.382443 0.161803
v 0.161803 0.382443 0.500000
v 0.500000 0.438197 -0.190211
v -0.190211 0.438197 0.500000
v 0.190211 0.438197 0.500000
v 0.500000 0.438197 0.190211
v 0.200000 0.500000 0.500000
v 0.500000 0.500000 0.200000
v 0.500000 0.500000 0.500000
v 0.500000 -0.500000 0.500000
v 0.500000 -0.500000 -0.500000
v -0.500000 -0.500000 0.500000
v -0.117557 0.338197 -0.500000
v -0.500000 0.338197 -0.117557
v -0.190211 0.438197 -0.500000
v -0.200000 0.500000 -0.500000
v -0.500000 0.500000 -0.200000
v -0.500000 0.438197 -0.190211
v -0.161803 0.382443 -0.500000
v -0.500000 0.382443 -0.161803
v -0.500000 0.500000 -0.500000
v -0.500000 -0.500000 -0.500000
v 0.070134 0.309789 0.092895
v 0.092895 0.309789 0.070134
v 0.123987 0.309789 0.061803
v 0.030905 0.304895 0.030905
v 0.061803 0.309789 0.123987
v 0.179741 0.338197 0.117557
v 0.148649 0.338197 0.125888
v 0.125888 0.338197 0.148649
v 0.117557 0.338197 0.179741
v 0.223987 0.382443 0.161803
v 0.192895 0.382443 0.170134
v 0.170134 0.382443 0.192895
v 0.161803 0.382443 0.223987
v 0.252395 0.438197 0.190211
v 0.221303 0.438197 0.198542
v 0.198542 0.438197 0.221303
v 0.190211 0.438197 0.252395
v 0.262184 0.500000 0.200000
v 0.231092 0.500000 0.208331
v 0.208331 0.500000 0.231092
v 0.200000 0.500000 0.262184
v -0.070134 0.309789 -0.092895
v -0.092895 0.309789 -0.070134
v -0.123987 0.309789 -0.061803
v -0.030905 0.304895 -0.030905
v -0.061803 0.309789 -0.123987
v -0.179741 0.338197 -0.117557
v -0.148649 0.338197 -0.125888
v -0.125888 0.338197 -0.148649
v -0.117557 0.338197 -0.179741
v -0.262184 0.500000 -0.200000
v -0.231092 0.500000 -0.208331
v -0.208331 0.500000 -0.231092
v -0.200000 0.500000 -0.262184
v -0.190211 0.438197 -0.252395
v -0.198542 0.438197 -0.221303
v -0.221303 0.438197 -0.198542
v -0.252395 0.438197 -0.190211
v -0.223987 0.382443 -0.161803
v -0.192895 0.382443 -0.170134
v -0.170134 0.382443 -0.192895
v -0.161803 0.382443 -0.223987
v 0.123987 0.309789 -0.061803
v 0.092895 0.309789 -0.070134
v 0.070134 0.309789 -0.092895
v 0.061803 0.309789 -0.123987
v 0.030905 0.304895 -0.030905
v 0.117557 0.338197 -0.179741
v 0.125888 0.338197 -0.148649
v 0.148649 0.338197 -0.125888
v 0.179741 0.338197 -0.117557
v 0.190211 0.438197 -0.252395
v 0.198542 0.438197 -0.221303
v 0.221303 0.438197 -0.198542
v 0.252395 0.438197 -0.190211
v 0.262184 0.500000 -0.200000
v 0.200000 0.500000 -0.262184
v 0.208331 0.500000 -0.231092
v 0.231092 0.500000 -0.208331
v 0.161803 0.382443 -0.223987
v 0.170135 0.382443 -0.192895
v 0.192895 0.382443 -0.170134
v 0.223987 0.382443 -0.161803
v -0.061803 0.309789 0.123987
v -0.030905 0.304895 0.030905
v -0.123987 0.309789 0.061803
v -0.092895 0.309789 0.070134
v -0.070134 0.309789 0.092895
v -0.179741 0.338197 0.117557
v -0.148649 0.338197 0.125888
v -0.125888 0.338197 0.148649
v -0.117557 0.338197 0.179741
v -0.200000 0.500000 0.262184
v -0.208331 0.500000 0.231092
v -0.231092 0.500000 0.208331
v -0.262184 0.500000 0.200000
v -0.252395 0.438197 0.190211
v -0.221303 0.438197 0.198542
v -0.198542 0.438197 0.221303
v -0.190211 0.438197 0.252395
v -0.223987 0.382443 0.161803
v -0.192895 0.382443 0.170134
v -0.170134 0.382443 0.192895
v -0.161803 0.382443 0.223987
vt 0.375000 0.250000
vt 0.625000 0.500000
vt 0.625000 0.250000
vt 0.625000 0.000000
vt 0.875000 0.000000
vt 0.875000 0.250000
vt 0.800000 0.250000
vt 0.797553 0.234549
vt 0.790451 0.220611
vt 0.779389 0.209549
vt 0.765451 0.202447
vt 0.750000 0.200000
vt 0.734549 0.202447
vt 0.720611 0.209549
vt 0.709549 0.220611
vt 0.702447 0.234549
vt 0.700000 0.250000
vt 0.375000 0.000000
vt 0.547553 0.234549
vt 0.540451 0.220611
vt 0.529389 0.209549
vt 0.515451 0.202447
vt 0.500000 0.200000
vt 0.484549 0.202447
vt 0.470611 0.209549
vt 0.459549 0.220611
vt 0.452447 0.234549
vt 0.375000 0.750000
vt 0.625000 0.750000
vt 0.625000 1.000000
vt 0.375000 1.000000
vt 0.452447 0.515451
vt 0.459549 0.529389
vt 0.470611 0.540451
vt 0.484549 0.547553
vt 0.500000 0.550000
vt 0.515451 0.547553
vt 0.529389 0.540451
vt 0.540451 0.529389
vt 0.547553 0.515451
vt 0.125000 0.000000
vt 0.300000 0.250000
vt 0.297553 0.234549
vt 0.290451 0.220611
vt 0.279389 0.209549
vt 0.265451 0.202447
vt 0.250000 0.200000
vt 0.234549 0.202447
vt 0.220611 0.209549
vt 0.209549 0.220611
vt 0.202447 0.234549
vt 0.200000 0.250000
vt 0.125000 0.250000
vt 0.487500 0.594455
vt 0.493751 0.506279
vt 0.500000 0.523776
vt 0.500000 0.594455
vt 0.512500 0.594455
vt 0.500000 0.406485
vt 0.500000 0.477164
vt 0.512500 0.466684
vt 0.512500 0.406485
vt 0.525000 0.458367
vt 0.512500 0.534256
vt 0.525000 0.594455
vt 0.525000 0.542573
vt 0.537500 0.594455
vt 0.525000 0.406485
vt 0.537500 0.453027
vt 0.537500 0.547913
vt 0.550000 0.594455
vt 0.550000 0.406485
vt 0.537500 0.406485
vt 0.493751 0.494661
vt 0.550000 0.250000
vt 0.625000 0.325000
vt 0.565546 0.325000
vt 0.550000 0.309454
vt 0.550000 0.549753
vt 0.550000 0.451187
vt 0.501807 0.489146
vt 0.501807 0.511793
vt 0.505334 0.486732
vt 0.505334 0.514208
vt 0.514518 0.480446
vt 0.514518 0.520494
vt 0.518045 0.522908
vt 0.518045 0.478032
vt 0.529970 0.531070
vt 0.529970 0.469870
vt 0.526443 0.528656
vt 0.526443 0.472284
vt 0.537500 0.536224
vt 0.537500 0.464716
vt 0.537154 0.541218
vt 0.550000 0.462876
vt 0.550000 0.538064
vt 0.550000 0.325000
vt 0.550000 0.543908
vt 0.550000 0.317227
vt 0.487500 0.406485
vt 0.481249 0.494661
vt 0.475000 0.477164
vt 0.425000 0.549753
vt 0.475000 0.406485
vt 0.462500 0.406485
vt 0.475000 0.523776
vt 0.462500 0.534256
vt 0.475000 0.594455
vt 0.425000 0.406485
vt 0.425000 0.451187
vt 0.437500 0.453027
vt 0.425000 0.594455
vt 0.437500 0.594455
vt 0.450000 0.406485
vt 0.462500 0.466684
vt 0.450000 0.542573
vt 0.462500 0.594455
vt 0.437500 0.406485
vt 0.450000 0.458367
vt 0.437500 0.547913
vt 0.450000 0.594455
vt 0.481249 0.506279
vt 0.450000 0.500000
vt 0.375000 0.500000
vt 0.375000 0.425000
vt 0.434454 0.425000
vt 0.450000 0.440546
vt 0.473976 0.512598
vt 0.473976 0.488342
vt 0.470791 0.515364
vt 0.470791 0.485576
vt 0.462500 0.478373
vt 0.462500 0.522567
vt 0.463520 0.473274
vt 0.450000 0.425000
vt 0.425000 0.538064
vt 0.425000 0.462876
vt 0.450000 0.432773
vt 0.425000 0.457032
vt 0.437996 0.459231
vt 0.437500 0.536224
vt 0.437500 0.464716
vt 0.450000 0.470056
vt 0.450000 0.530884
vt 0.450869 0.464720
vt 0.487500 0.406485
vt 0.475000 0.406485
vt 0.481249 0.494661
vt 0.475000 0.477164
vt 0.500000 0.406485
vt 0.500000 0.477164
vt 0.512500 0.466684
vt 0.550000 0.406485
vt 0.537500 0.406485
vt 0.512500 0.406485
vt 0.525000 0.458367
vt 0.525000 0.406485
vt 0.537500 0.453027
vt 0.462500 0.406485
vt 0.450000 0.406485
vt 0.462500 0.466684
vt 0.437500 0.406485
vt 0.450000 0.458367
vt 0.425000 0.406485
vt 0.437500 0.453027
vt 0.493751 0.494661
vt 0.565546 0.425000
vt 0.625000 0.425000
vt 0.550000 0.500000
vt 0.550000 0.440546
vt 0.425000 0.451187
vt 0.550000 0.451187
vt 0.500000 0.488853
vt 0.475000 0.488853
vt 0.499393 0.483573
vt 0.511489 0.473141
vt 0.462500 0.478373
vt 0.512500 0.478373
vt 0.536994 0.459232
vt 0.537500 0.464716
vt 0.437500 0.464716
vt 0.550000 0.457032
vt 0.550000 0.432773
vt 0.550000 0.462876
vt 0.425000 0.462876
vt 0.550000 0.425000
vt 0.524138 0.464716
vt 0.450000 0.470056
vt 0.525000 0.470056
vt 0.475000 0.594455
vt 0.487500 0.500470
vt 0.493751 0.506279
vt 0.487500 0.594455
vt 0.425000 0.549753
vt 0.500000 0.594455
vt 0.512500 0.594455
vt 0.550000 0.549753
vt 0.537500 0.547913
vt 0.550000 0.594455
vt 0.512500 0.534256
vt 0.525000 0.594455
vt 0.525000 0.542573
vt 0.537500 0.594455
vt 0.462500 0.534256
vt 0.475000 0.523776
vt 0.450000 0.542573
vt 0.462500 0.594455
vt 0.437500 0.547913
vt 0.450000 0.594455
vt 0.425000 0.594455
vt 0.437500 0.594455
vt 0.481249 0.506279
vt 0.375000 0.325000
vt 0.450000 0.250000
vt 0.450000 0.309454
vt 0.434454 0.325000
vt 0.500000 0.523776
vt 0.484911 0.511493
vt 0.473976 0.512598
vt 0.481041 0.513775
vt 0.470791 0.515364
vt 0.511073 0.527638
vt 0.512500 0.522567
vt 0.462500 0.522567
vt 0.450000 0.325000
vt 0.425000 0.538064
vt 0.550000 0.538064
vt 0.442227 0.325000
vt 0.550000 0.543908
vt 0.537003 0.541708
vt 0.437500 0.536224
vt 0.537500 0.536224
vt 0.524114 0.536218
vt 0.450000 0.530884
vt 0.525000 0.530884
vn 0.000000 1.000000 -0.000000
vn 0.078114 0.993880 0.078114
vn 0.000000 1.000000 -0.000000
vn 0.006774 0.968424 0.249218
vn 0.000000 0.954403 0.298522
vn 0.000000 1.000000 0.000000
vn 0.249219 0.968424 0.006774
vn 0.298522 0.954403 0.000000
vn -0.078114 0.993880 0.078114
vn -0.249219 0.968424 0.006774
vn -0.298522 0.954403 -0.000000
vn 0.000000 1.000000 0.000001
vn -0.006774 0.968424 0.249219
vn 0.000000 0.954403 0.298522
vn -0.078114 0.993880 -0.078114
vn -0.006774 0.968424 -0.249218
vn 0.000000 0.954403 -0.298522
vn 0.000000 1.000000 0.000000
vn -0.249219 0.968424 -0.006774
vn -0.298522 0.954403 0.000000
vn 1.000000 0.000000 0.000000
vn 1.000000 0.000000 -0.000000
vn 1.000000 0.000000 0.000000
vn 1.000000 0.000000 0.000000
vn 1.000000 0.000000 0.000000
vn 1.000000 0.000000 0.000000
vn 1.000000 0.000000 0.000000
vn 1.000000 0.000000 0.000000
vn 1.000000 0.000000 0.000000
vn 1.000000 0.000000 0.000000
vn 1.000000 0.000001 0.000000
vn 1.000000 0.000002 -0.000002
vn 1.000000 0.000000 0.000000
vn 1.000000 -0.000000 0.000002
vn 1.000000 -0.000003 0.000002
vn 0.000000 0.000000 1.000000
vn -0.000000 0.000000 1.000000
vn -0.000000 0.000000 1.000000
vn 0.000000 0.000000 1.000000
vn 0.000000 0.000000 1.000000
vn 0.000000 0.000000 1.000000
vn 0.000001 0.000000 1.000000
vn 0.000000 0.000000 1.000000
vn 0.000000 0.000000 1.000000
vn 0.000000 0.000000 1.000000
vn 0.000000 0.000000 1.000000
vn 0.000000 0.000000 1.000000
vn -0.000000 0.000000 1.000000
vn 0.000004 0.000000 1.000000
vn -0.000001 0.000000 1.000000
vn 0.000000 -1.000000 0.000000
vn 0.000000 -1.000000 0.000000
vn 0.000000 -1.000000 0.000000
vn 0.000000 -1.000000 0.000000
vn 0.000000 0.000000 -1.000000
vn 0.000000 0.000000 -1.000000
vn 0.000000 0.000000 -1.000000
vn 0.000000 0.000000 -1.000000
vn 0.000000 0.000000 -1.000000
vn 0.000000 0.000000 -1.000000
vn -0.000000 0.000000 -1.000000
vn 0.000000 0.000000 -1.000000
vn 0.000000 0.000000 -1.000000
vn 0.000000 0.000000 -1.000000
vn -0.000001 0.000000 -1.000000
vn 0.000000 0.000000 -1.000000
vn 0.000000 0.000000 -1.000000
vn 0.000000 0.000000 -1.000000
vn 0.000000 0.000000 -1.000000
vn -1.000000 0.000000 0.000000
vn -1.000000 0.000000 0.000000
vn -1.000000 0.000000 0.000000
vn -1.000000 0.000000 0.000000
vn -1.000000 0.000000 0.000000
vn -1.000000 0.000000 0.000000
vn -1.000000 0.000000 0.000000
vn -1.000000 0.000000 0.000000
vn -1.000000 0.000000 0.000000
vn -1.000000 0.000000 0.000000
vn -1.000000 0.000000 0.000000
vn -1.000000 0.000000 0.000000
vn -1.000000 -0.000000 0.000000
vn -1.000000 -0.000000 0.000000
vn -1.000000 0.000001 0.000000
vn -0.109885 0.977653 -0.179220
vn -0.228617 0.891598 -0.390881
vn -0.012564 0.850095 -0.526480
vn -0.179219 0.977653 -0.109884
vn -0.390880 0.891598 -0.228617
vn -0.526479 0.850095 -0.012564
vn -0.579683 0.814842 0.000000
vn 0.000000 0.814841 -0.579684
vn 0.000000 0.593576 -0.804778
vn -0.018816 0.635489 -0.771881
vn -0.771881 0.635489 -0.018816
vn -0.804777 0.593577 0.000000
vn -0.939118 0.342769 -0.023821
vn -0.950231 0.311547 0.000000
vn 0.000000 0.311547 -0.950231
vn -0.023821 0.342769 -0.939118
vn -0.986733 0.160329 -0.025544
vn -0.987688 0.156434 0.000000
vn 0.000000 0.156434 -0.987688
vn -0.025544 0.160329 -0.986733
vn 0.000000 1.000000 0.000000
vn 0.000000 1.000000 0.000000
vn 0.000000 1.000000 0.000000
vn 0.000000 1.000000 0.000000
vn 0.000000 1.000000 0.000000
vn 0.000000 1.000000 0.000000
vn 0.000000 1.000000 0.000000
vn -0.604833 0.716394 -0.347788
vn -0.347788 0.716394 -0.604833
vn -0.790793 0.415651 -0.449312
vn -0.449311 0.415651 -0.790793
vn -0.850910 0.210968 -0.481087
vn -0.481087 0.210968 -0.850910
vn 0.109885 0.977653 0.179220
vn 0.228617 0.891598 0.390880
vn 0.012564 0.850095 0.526479
vn 0.179219 0.977653 0.109884
vn 0.390880 0.891598 0.228617
vn 0.526479 0.850095 0.012564
vn 0.986733 0.160329 0.025544
vn 0.850910 0.210967 0.481087
vn 0.939118 0.342769 0.023821
vn 0.790793 0.415651 0.449312
vn 0.481087 0.210967 0.850910
vn 0.449312 0.415651 0.790793
vn 0.025544 0.160329 0.986733
vn 0.023821 0.342769 0.939118
vn 0.579682 0.814843 0.000000
vn 0.000000 0.814843 0.579682
vn 0.987688 0.156434 0.000000
vn 0.950231 0.311548 0.000000
vn 0.000000 0.311548 0.950231
vn 0.000000 0.156434 0.987688
vn 0.804777 0.593577 0.000000
vn 0.771880 0.635489 0.018816
vn 0.018816 0.635489 0.771881
vn 0.000000 0.593577 0.804777
vn 0.000000 1.000000 0.000000
vn 0.000000 1.000000 0.000000
vn 0.000000 1.000000 0.000000
vn 0.000000 1.000000 0.000000
vn 0.000000 1.000000 0.000000
vn 0.000000 1.000000 0.000000
vn 0.000000 1.000000 0.000000
vn 0.604832 0.716395 0.347788
vn 0.347788 0.716395 0.604832
vn -0.179219 0.977653 0.109884
vn -0.390880 0.891598 0.228617
vn -0.526479 0.850095 0.012564
vn -0.109885 0.977653 0.179219
vn -0.228616 0.891598 0.390880
vn -0.012564 0.850096 0.526478
vn -0.579683 0.814842 0.000000
vn -0.987688 0.156434 0.000000
vn -0.950231 0.311547 0.000000
vn -0.986733 0.160327 0.025544
vn -0.939118 0.342769 0.023822
vn -0.804778 0.593577 0.000000
vn -0.771880 0.635490 0.018816
vn -0.000000 0.814842 0.579683
vn -0.000000 0.593576 0.804778
vn -0.018816 0.635490 0.771880
vn 0.000000 0.311547 0.950231
vn -0.023821 0.342769 0.939118
vn 0.000000 0.156434 0.987688
vn -0.025544 0.160329 0.986733
vn 0.000000 1.000000 0.000000
vn 0.000000 1.000000 0.000000
vn 0.000000 1.000000 0.000000
vn 0.000000 1.000000 0.000000
vn 0.000000 1.000000 0.000000
vn 0.000000 1.000000 0.000000
vn 0.000000 1.000000 0.000000
vn -0.347788 0.716395 0.604832
vn -0.604832 0.716395 0.347788
vn -0.449312 0.415650 0.790793
vn -0.481087 0.210967 0.850910
vn -0.790793 0.415650 0.449312
vn -0.850910 0.210966 0.481087
vn 0.078114 0.993880 -0.078114
vn 0.249219 0.968424 -0.006774
vn 0.298522 0.954403 0.000000
vn 0.006774 0.968424 -0.249219
vn -0.000000 0.954403 -0.298522
vn 0.025544 0.160329 -0.986733
vn 0.481087 0.210968 -0.850910
vn 0.023821 0.342769 -0.939118
vn 0.449312 0.415651 -0.790793
vn 0.850910 0.210967 -0.481087
vn 0.790793 0.415651 -0.449312
vn 0.986733 0.160329 -0.025544
vn 0.939118 0.342769 -0.023821
vn 0.012564 0.850095 -0.526479
vn -0.000000 0.814842 -0.579683
vn -0.000000 0.311547 -0.950231
vn 0.000000 0.156434 -0.987688
vn 0.018816 0.635489 -0.771881
vn -0.000000 0.593577 -0.804778
vn 0.579682 0.814843 0.000000
vn 0.526479 0.850095 -0.012564
vn 0.804777 0.593577 0.000000
vn 0.771881 0.635489 -0.018816
vn 0.950230 0.311549 0.000000
vn 0.987688 0.156434 0.000000
vn 0.109885 0.977653 -0.179220
vn 0.179219 0.977653 -0.109885
vn 0.000000 1.000000 0.000000
vn 0.000000 1.000000 -0.000000
vn 0.000000 1.000000 -0.000000
vn 0.000000 1.000000 0.000000
vn 0.000000 1.000000 0.000000
vn 0.000000 1.000000 0.000000
vn 0.000000 1.000000 -0.000001
vn 0.390880 0.891598 -0.228617
vn 0.228617 0.891598 -0.390880
vn 0.604833 0.716394 -0.347788
vn 0.347788 0.716394 -0.604833
f 1/192/1 78/123/2 3/194/3
f 78/123/2 77/107/4 3/194/3
f 77/107/4 2/109/5 3/194/3
f 1/192/1 4/101/6 78/102/2
f 78/102/2 4/101/6 79/103/7
f 4/101/6 5/105/8 79/103/7
f 1/192/1 100/167/9 4/101/6
f 100/167/9 99/152/10 4/101/6
f 6/151/11 4/101/6 99/152/10
f 1/192/1 24/147/12 100/149/9
f 100/149/9 24/147/12 96/150/13
f 24/147/12 20/148/14 96/150/13
f 1/192/1 57/74/15 24/147/12
f 57/74/15 56/60/16 24/147/12
f 26/59/17 24/147/12 56/60/16
f 1/192/1 25/54/18 57/55/15
f 57/55/15 25/54/18 58/56/19
f 25/54/18 27/57/20 58/56/19
f 41/4/21 42/5/22 40/3/23
f 19/6/24 18/7/25 42/5/22
f 18/7/25 34/8/26 42/5/22
f 34/8/26 30/9/27 42/5/22
f 30/9/27 21/10/28 42/5/22
f 21/10/28 20/11/29 42/5/22
f 39/17/30 40/3/23 37/16/31
f 20/11/29 24/12/32 42/5/22
f 37/16/31 40/3/23 32/15/33
f 40/3/23 42/5/22 32/15/33
f 32/15/33 42/5/22 29/14/34
f 29/14/34 42/5/22 26/13/35
f 42/5/22 24/12/32 26/13/35
f 43/18/36 41/4/37 16/1/38
f 40/3/39 38/75/40 41/4/37
f 38/75/40 36/19/41 41/4/37
f 36/19/41 33/20/42 41/4/37
f 33/20/42 28/21/43 41/4/37
f 28/21/43 27/22/44 41/4/37
f 17/215/45 16/1/38 35/27/46
f 27/22/44 25/23/47 41/4/37
f 35/27/46 16/1/38 31/26/48
f 16/1/38 41/4/37 31/26/48
f 31/26/48 41/4/37 22/25/49
f 22/25/49 41/4/37 23/24/50
f 41/4/37 25/23/47 23/24/50
f 53/28/51 42/29/52 43/31/53
f 43/31/53 42/29/52 41/30/54
f 52/125/55 47/124/56 53/28/57
f 47/124/56 46/32/58 53/28/57
f 46/32/58 50/33/59 53/28/57
f 50/33/59 44/34/60 53/28/57
f 53/28/57 44/34/60 42/29/61
f 44/34/60 5/35/62 42/29/61
f 5/35/62 4/36/63 42/29/61
f 4/36/63 6/37/64 42/29/61
f 6/37/64 8/38/65 42/29/61
f 19/2/66 42/29/61 12/170/67
f 12/170/67 42/29/61 13/40/68
f 13/40/68 42/29/61 14/39/69
f 8/38/65 14/39/69 42/29/61
f 53/41/70 43/18/71 52/53/72
f 16/1/73 11/42/74 43/18/71
f 11/42/74 10/43/75 43/18/71
f 10/43/75 15/44/76 43/18/71
f 15/44/76 9/45/77 43/18/71
f 9/45/77 7/46/78 43/18/71
f 48/52/79 52/53/72 49/51/80
f 7/46/78 3/47/81 43/18/71
f 49/51/80 52/53/72 51/50/82
f 52/53/72 43/18/71 51/50/82
f 51/50/82 43/18/71 45/49/83
f 45/49/83 43/18/71 2/48/84
f 43/18/71 3/47/81 2/48/84
f 55/83/85 60/85/86 56/60/16
f 56/60/16 60/85/86 59/61/87
f 55/84/85 54/82/88 60/86/86
f 60/86/86 54/82/88 61/87/89
f 54/82/88 58/56/19 61/87/89
f 61/87/89 58/56/19 62/64/90
f 58/56/19 27/57/20 62/64/90
f 62/64/90 27/57/20 28/58/91
f 29/62/92 26/59/17 59/61/87
f 59/61/87 26/59/17 56/60/16
f 32/68/93 29/62/92 63/63/94
f 63/63/94 29/62/92 59/61/87
f 62/64/90 28/58/91 66/66/95
f 66/66/95 28/58/91 33/65/96
f 66/66/95 33/65/96 70/70/97
f 70/70/97 33/65/96 36/67/98
f 37/73/99 32/68/93 67/69/100
f 67/69/100 32/68/93 63/63/94
f 70/70/97 36/67/98 74/79/101
f 74/79/101 36/67/98 38/71/102
f 39/72/103 37/73/99 71/80/104
f 71/80/104 37/73/99 67/69/100
f 57/55/15 58/56/19 54/82/88
f 57/74/15 54/81/88 55/83/85
f 57/74/15 55/83/85 56/60/16
f 38/75/105 40/3/106 74/78/107
f 39/76/108 71/77/109 40/3/106
f 71/77/109 72/98/110 40/3/106
f 72/98/110 73/100/111 40/3/106
f 40/3/106 73/100/111 74/78/107
f 61/87/89 62/64/90 65/91/112
f 65/91/112 62/64/90 66/66/95
f 60/85/86 64/90/113 59/61/87
f 59/61/87 64/90/113 63/63/94
f 60/85/86 61/88/89 64/90/113
f 64/90/113 61/88/89 65/92/112
f 65/91/112 66/66/95 69/95/114
f 69/95/114 66/66/95 70/70/97
f 64/90/113 68/94/115 63/63/94
f 63/63/94 68/94/115 67/69/100
f 64/89/113 65/91/112 68/93/115
f 68/93/115 65/91/112 69/95/114
f 69/95/114 70/70/97 73/99/116
f 73/99/116 70/70/97 74/79/101
f 68/94/115 72/96/117 67/69/100
f 67/69/100 72/96/117 71/80/104
f 68/93/115 69/95/114 72/97/117
f 72/97/117 69/95/114 73/99/116
f 76/131/118 81/134/119 77/107/4
f 77/107/4 81/134/119 80/108/120
f 76/132/118 75/130/121 81/133/119
f 81/133/119 75/130/121 82/135/122
f 75/130/121 79/103/7 82/135/122
f 82/135/122 79/103/7 83/116/123
f 87/111/124 86/140/125 88/112/126
f 88/112/126 86/140/125 89/141/127
f 86/140/125 85/138/128 89/141/127
f 89/141/127 85/138/128 90/143/129
f 84/104/130 91/121/131 85/137/128
f 85/137/128 91/121/131 90/142/129
f 44/106/132 83/116/123 5/105/8
f 5/105/8 83/116/123 79/103/7
f 77/107/4 80/108/120 2/109/5
f 2/109/5 80/108/120 45/118/133
f 47/110/134 87/111/124 46/119/135
f 46/119/135 87/111/124 88/112/126
f 91/121/131 84/104/130 49/114/136
f 49/114/136 84/104/130 48/113/137
f 50/115/138 95/120/139 44/106/132
f 44/106/132 95/120/139 83/116/123
f 80/108/120 92/117/140 45/118/133
f 45/118/133 92/117/140 51/122/141
f 46/119/135 88/112/126 50/115/138
f 50/115/138 88/112/126 95/120/139
f 92/117/140 91/121/131 51/122/141
f 51/122/141 91/121/131 49/114/136
f 78/102/2 79/103/7 75/130/121
f 78/123/2 75/129/121 76/131/118
f 78/123/2 76/131/118 77/107/4
f 47/124/142 52/125/143 87/128/144
f 48/126/145 84/127/146 52/125/143
f 84/127/146 85/136/147 52/125/143
f 85/136/147 86/139/148 52/125/143
f 52/125/143 86/139/148 87/128/144
f 82/135/122 83/116/123 94/146/149
f 94/146/149 83/116/123 95/120/139
f 81/134/119 93/145/150 80/108/120
f 80/108/120 93/145/150 92/117/140
f 81/133/119 82/135/122 93/144/150
f 93/144/150 82/135/122 94/146/149
f 88/112/126 89/141/127 95/120/139
f 95/120/139 89/141/127 94/146/149
f 89/141/127 90/143/129 94/146/149
f 94/146/149 90/143/129 93/144/150
f 91/121/131 92/117/140 90/142/129
f 90/142/129 92/117/140 93/145/150
f 98/176/151 102/177/152 99/152/10
f 99/152/10 102/177/152 101/153/153
f 98/176/151 97/174/154 102/177/152
f 102/177/152 97/174/154 103/179/155
f 97/175/154 96/150/13 103/178/155
f 103/178/155 96/150/13 104/162/156
f 8/156/157 6/151/11 101/153/153
f 101/153/153 6/151/11 99/152/10
f 12/154/158 13/155/159 110/173/160
f 110/173/160 13/155/159 105/159/161
f 14/158/162 8/156/157 113/157/163
f 113/157/163 8/156/157 101/153/153
f 13/155/159 14/158/162 105/159/161
f 105/159/161 14/158/162 113/157/163
f 21/160/164 104/162/156 20/148/14
f 20/148/14 104/162/156 96/150/13
f 30/161/165 116/164/166 21/160/164
f 21/160/164 116/164/166 104/162/156
f 34/163/167 108/166/168 30/161/165
f 30/161/165 108/166/168 116/164/166
f 18/165/169 109/172/170 34/163/167
f 34/163/167 109/172/170 108/166/168
f 100/149/9 96/150/13 97/175/154
f 100/167/9 97/174/154 98/176/151
f 100/167/9 98/176/151 99/152/10
f 18/169/171 19/2/172 109/168/173
f 12/170/174 110/171/175 19/2/172
f 109/168/173 19/2/172 112/187/176
f 112/187/176 19/2/172 111/184/177
f 19/2/172 110/171/175 111/184/177
f 103/178/155 104/162/156 115/189/178
f 115/189/178 104/162/156 116/164/166
f 102/177/152 114/188/179 101/153/153
f 101/153/153 114/188/179 113/157/163
f 102/177/152 103/179/155 114/188/179
f 114/188/179 103/179/155 115/190/178
f 107/182/180 108/166/168 112/186/181
f 112/186/181 108/166/168 109/172/170
f 106/180/182 111/183/183 105/159/161
f 105/159/161 111/183/183 110/173/160
f 106/180/182 107/181/180 111/183/183
f 111/183/183 107/181/180 112/185/181
f 108/166/168 107/182/180 116/164/166
f 116/164/166 107/182/180 115/189/178
f 107/181/180 106/180/182 115/190/178
f 115/190/178 106/180/182 114/188/179
f 105/159/161 113/157/163 106/180/182
f 106/180/182 113/157/163 114/188/179
f 1/192/1 118/213/184 25/54/18
f 118/213/184 117/206/185 25/54/18
f 117/206/185 23/191/186 25/54/18
f 1/192/1 3/194/3 118/193/184
f 118/193/184 3/194/3 119/218/187
f 119/218/187 3/194/3 7/196/188
f 129/198/189 128/230/190 130/199/191
f 130/199/191 128/230/190 131/231/192
f 128/230/190 127/228/193 131/231/192
f 131/231/192 127/228/193 132/233/194
f 126/195/195 133/209/196 127/227/193
f 127/227/193 133/209/196 132/232/194
f 119/218/187 7/196/188 122/201/197
f 122/201/197 7/196/188 9/197/198
f 130/199/191 10/204/199 129/198/189
f 129/198/189 10/204/199 11/200/200
f 122/201/197 9/197/198 134/203/201
f 134/203/201 9/197/198 15/202/202
f 134/203/201 15/202/202 130/199/191
f 130/199/191 15/202/202 10/204/199
f 22/208/203 23/191/186 125/205/204
f 125/205/204 23/191/186 117/206/185
f 31/210/205 22/208/203 137/207/206
f 137/207/206 22/208/203 125/205/204
f 35/212/207 31/210/205 133/209/196
f 133/209/196 31/210/205 137/207/206
f 133/209/196 126/195/195 35/212/207
f 35/212/207 126/195/195 17/211/208
f 118/193/184 119/218/187 120/219/209
f 118/213/184 120/220/209 121/222/210
f 118/213/184 121/222/210 117/206/185
f 11/214/211 16/1/212 129/217/213
f 17/215/214 126/216/215 16/1/212
f 126/216/215 127/226/216 16/1/212
f 127/226/216 128/229/217 16/1/212
f 16/1/212 128/229/217 129/217/213
f 121/222/210 124/225/218 117/206/185
f 117/206/185 124/225/218 125/205/204
f 121/221/210 120/219/209 124/224/218
f 124/224/218 120/219/209 123/223/219
f 120/219/209 119/218/187 123/223/219
f 123/223/219 119/218/187 122/201/197
f 133/209/196 137/207/206 132/232/194
f 132/232/194 137/207/206 136/235/220
f 130/199/191 131/231/192 134/203/201
f 134/203/201 131/231/192 135/234/221
f 131/231/192 132/233/194 135/234/221
f 135/234/221 132/233/194 136/236/220
f 124/225/218 136/235/220 125/205/204
f 125/205/204 136/235/220 137/207/206
f 124/224/218 123/223/219 136/236/220
f 136/236/220 123/223/219 135/234/221
f 123/223/219 122/201/197 135/234/221
f 135/234/221 122/201/197 134/203/201
