# This file uses centimeters as units for non-parametric coordinates.

v 0.012759 0.012759 0.012759
v 0.012759 -0.012759 0.012759
v -0.012759 -0.012759 0.012759
v -0.012759 0.012759 0.012759
v 0.012759 0.012759 -0.012759
v 0.012759 -0.012759 -0.012759
v -0.012759 -0.012759 -0.012759
v -0.012759 0.012759 -0.012759
v 0.000000 0.000000 0.199571
v 0.000000 0.000000 -0.199571
v 0.000000 -0.199571 0.000000
v 0.000000 0.199571 0.000000
v -0.199571 0.000000 0.000000
v 0.199571 0.000000 0.000000
v 0.000000 0.070112 0.070112
v 0.059231 0.059231 0.118462
v -0.059231 0.059231 0.118462
v -0.070112 0.000000 0.070112
v -0.059231 -0.059231 0.118462
v 0.000000 -0.070112 0.070112
v 0.059231 -0.059231 0.118462
v 0.070112 0.000000 0.070112
v 0.000000 0.070112 -0.070112
v -0.059231 0.059231 -0.118462
v 0.059231 0.059231 -0.118462
v 0.070112 0.000000 -0.070112
v 0.059231 -0.059231 -0.118462
v 0.000000 -0.070112 -0.070112
v -0.059231 -0.059231 -0.118462
v -0.070112 0.000000 -0.070112
v -0.070112 -0.070112 0.000000
v -0.059231 -0.118462 0.059231
v -0.059231 -0.118462 -0.059231
v 0.059231 -0.118462 -0.059231
v 0.070112 -0.070112 0.000000
v 0.059231 -0.118462 0.059231
v 0.070112 0.070112 0.000000
v 0.059231 0.118462 0.059231
v 0.059231 0.118462 -0.059231
v -0.059231 0.118462 -0.059231
v -0.070112 0.070112 0.000000
v -0.059231 0.118462 0.059231
v -0.118462 -0.059231 0.059231
v -0.118462 0.059231 0.059231
v -0.118462 0.059231 -0.059231
v -0.118462 -0.059231 -0.059231
v 0.118462 -0.059231 0.059231
v 0.118462 -0.059231 -0.059231
v 0.118462 0.059231 -0.059231
v 0.118462 0.059231 0.059231
vt 0.625000 0.695913
vt 0.625000 0.304087
vt 0.375000 0.304087
vt 0.375000 0.695913
vt 0.875000 0.695913
vt 0.875000 0.304087
vt 0.125000 0.304087
vt 0.125000 0.695913
vt 0.500000 0.500000
vt 1.000000 0.500000
vt 0.500000 1.000000
vt 0.500000 1.000000
vt 0.250000 0.500000
vt 0.750000 0.500000
vt 0.500000 0.750000
vt 0.573792 0.633860
vt 0.426208 0.633860
vt 0.375000 0.500000
vt 0.426208 0.366140
vt 0.500000 0.250000
vt 0.573792 0.366140
vt 0.625000 0.500000
vt 1.000000 0.750000
vt 0.073792 0.633860
vt 0.926208 0.633860
vt 0.875000 0.500000
vt 0.926208 0.366140
vt 1.000000 0.250000
vt 0.073792 0.366140
vt 0.125000 0.500000
vt 0.250000 0.250000
vt 0.375000 0.195913
vt 0.125000 0.195913
vt 0.875000 0.195913
vt 0.750000 0.250000
vt 0.625000 0.195913
vt 0.750000 0.750000
vt 0.625000 0.804087
vt 0.875000 0.804087
vt 0.125000 0.804087
vt 0.250000 0.750000
vt 0.375000 0.804087
vt 0.323792 0.366140
vt 0.323792 0.633860
vt 0.176208 0.633860
vt 0.176208 0.366140
vt 0.676208 0.366140
vt 0.823792 0.366140
vt 0.823792 0.633860
vt 0.676208 0.633860
vt 1.125000 0.695913
vt 1.073792 0.633860
vt 1.125000 0.304087
vt 1.073792 0.366140
vt 1.125000 0.195913
vt 1.125000 0.804087
vn 0.549142 0.648869 -0.526699
vn 0.549142 0.648869 -0.526699
vn 0.549142 0.648869 -0.526699
vn -0.549142 0.648869 -0.526699
vn -0.549142 0.648869 -0.526699
vn -0.549142 0.648869 -0.526699
vn 0.000000 0.975601 0.219550
vn 0.000000 0.975601 0.219550
vn 0.000000 0.975601 0.219550
vn 0.000000 0.807583 0.589753
vn 0.000000 0.807583 0.589753
vn 0.000000 0.807583 0.589753
vn -0.648869 0.549142 -0.526699
vn -0.648869 0.549142 -0.526699
vn -0.648869 0.549142 -0.526699
vn -0.648869 -0.549142 -0.526699
vn -0.648869 -0.549142 -0.526699
vn -0.648869 -0.549142 -0.526699
vn -0.975601 0.000000 0.219550
vn -0.975601 0.000000 0.219550
vn -0.975601 0.000000 0.219550
vn -0.807583 0.000000 0.589753
vn -0.807583 0.000000 0.589753
vn -0.807583 0.000000 0.589753
vn -0.549142 -0.648869 -0.526699
vn -0.549142 -0.648869 -0.526699
vn -0.549142 -0.648869 -0.526699
vn 0.549142 -0.648869 -0.526699
vn 0.549142 -0.648869 -0.526699
vn 0.549142 -0.648869 -0.526699
vn 0.000000 -0.975601 0.219550
vn 0.000000 -0.975601 0.219550
vn 0.000000 -0.975601 0.219550
vn 0.000000 -0.807583 0.589753
vn 0.000000 -0.807583 0.589753
vn 0.000000 -0.807583 0.589753
vn 0.648869 -0.549142 -0.526699
vn 0.648869 -0.549142 -0.526699
vn 0.648869 -0.549142 -0.526699
vn 0.648869 0.549142 -0.526699
vn 0.648869 0.549142 -0.526699
vn 0.648869 0.549142 -0.526699
vn 0.975601 0.000000 0.219550
vn 0.975601 0.000000 0.219550
vn 0.975601 0.000000 0.219550
vn 0.807583 0.000000 0.589753
vn 0.807583 0.000000 0.589753
vn 0.807583 0.000000 0.589753
vn -0.549142 0.648869 0.526699
vn -0.549142 0.648869 0.526699
vn -0.549142 0.648869 0.526699
vn 0.549142 0.648869 0.526699
vn 0.549142 0.648869 0.526699
vn 0.549142 0.648869 0.526699
vn 0.000000 0.975601 -0.219550
vn 0.000000 0.975601 -0.219550
vn 0.000000 0.975601 -0.219550
vn 0.000000 0.807583 -0.589753
vn 0.000000 0.807583 -0.589753
vn 0.000000 0.807583 -0.589753
vn 0.648869 0.549142 0.526699
vn 0.648869 0.549142 0.526699
vn 0.648869 0.549142 0.526699
vn 0.648869 -0.549142 0.526699
vn 0.648869 -0.549142 0.526699
vn 0.648869 -0.549142 0.526699
vn 0.975601 0.000000 -0.219550
vn 0.975601 0.000000 -0.219550
vn 0.975601 0.000000 -0.219550
vn 0.807583 0.000000 -0.589753
vn 0.807583 0.000000 -0.589753
vn 0.807583 0.000000 -0.589753
vn 0.549142 -0.648869 0.526699
vn 0.549142 -0.648869 0.526699
vn 0.549142 -0.648869 0.526699
vn -0.549142 -0.648869 0.526699
vn -0.549142 -0.648869 0.526699
vn -0.549142 -0.648869 0.526699
vn 0.000000 -0.975601 -0.219550
vn 0.000000 -0.975601 -0.219550
vn 0.000000 -0.975601 -0.219550
vn 0.000000 -0.807583 -0.589753
vn 0.000000 -0.807583 -0.589753
vn 0.000000 -0.807583 -0.589753
vn -0.648869 -0.549142 0.526699
vn -0.648869 -0.549142 0.526699
vn -0.648869 -0.549142 0.526699
vn -0.648869 0.549142 0.526699
vn -0.648869 0.549142 0.526699
vn -0.648869 0.549142 0.526699
vn -0.975601 0.000000 -0.219550
vn -0.975601 0.000000 -0.219550
vn -0.975601 0.000000 -0.219550
vn -0.807583 0.000000 -0.589753
vn -0.807583 0.000000 -0.589753
vn -0.807583 0.000000 -0.589753
vn -0.648869 0.526699 0.549142
vn -0.648869 0.526699 0.549142
vn -0.648869 0.526699 0.549142
vn -0.648869 0.526699 -0.549142
vn -0.648869 0.526699 -0.549142
vn -0.648869 0.526699 -0.549142
vn -0.975601 -0.219550 0.000000
vn -0.975601 -0.219550 0.000000
vn -0.975601 -0.219550 0.000000
vn -0.807583 -0.589753 0.000000
vn -0.807583 -0.589753 0.000000
vn -0.807583 -0.589753 0.000000
vn -0.549142 0.526699 -0.648869
vn -0.549142 0.526699 -0.648869
vn -0.549142 0.526699 -0.648869
vn 0.549142 0.526699 -0.648869
vn 0.549142 0.526699 -0.648869
vn 0.549142 0.526699 -0.648869
vn 0.000000 -0.219550 -0.975601
vn 0.000000 -0.219550 -0.975601
vn 0.000000 -0.219550 -0.975601
vn 0.000000 -0.589753 -0.807583
vn 0.000000 -0.589753 -0.807583
vn 0.000000 -0.589753 -0.807583
vn 0.648869 0.526699 -0.549142
vn 0.648869 0.526699 -0.549142
vn 0.648869 0.526699 -0.549142
vn 0.648869 0.526699 0.549142
vn 0.648869 0.526699 0.549142
vn 0.648869 0.526699 0.549142
vn 0.975601 -0.219550 0.000000
vn 0.975601 -0.219550 0.000000
vn 0.975601 -0.219550 0.000000
vn 0.807583 -0.589753 0.000000
vn 0.807583 -0.589753 0.000000
vn 0.807583 -0.589753 0.000000
vn 0.549142 0.526699 0.648869
vn 0.549142 0.526699 0.648869
vn 0.549142 0.526699 0.648869
vn -0.549142 0.526699 0.648869
vn -0.549142 0.526699 0.648869
vn -0.549142 0.526699 0.648869
vn 0.000000 -0.219550 0.975601
vn 0.000000 -0.219550 0.975601
vn 0.000000 -0.219550 0.975601
vn 0.000000 -0.589753 0.807583
vn 0.000000 -0.589753 0.807583
vn 0.000000 -0.589753 0.807583
vn 0.648869 -0.526699 0.549142
vn 0.648869 -0.526699 0.549142
vn 0.648869 -0.526699 0.549142
vn 0.648869 -0.526699 -0.549142
vn 0.648869 -0.526699 -0.549142
vn 0.648869 -0.526699 -0.549142
vn 0.975601 0.219550 0.000000
vn 0.975601 0.219550 0.000000
vn 0.975601 0.219550 0.000000
vn 0.807583 0.589753 0.000000
vn 0.807583 0.589753 0.000000
vn 0.807583 0.589753 0.000000
vn 0.549142 -0.526699 -0.648869
vn 0.549142 -0.526699 -0.648869
vn 0.549142 -0.526699 -0.648869
vn -0.549142 -0.526699 -0.648869
vn -0.549142 -0.526699 -0.648869
vn -0.549142 -0.526699 -0.648869
vn 0.000000 0.219550 -0.975601
vn 0.000000 0.219550 -0.975601
vn 0.000000 0.219550 -0.975601
vn 0.000000 0.589753 -0.807583
vn 0.000000 0.589753 -0.807583
vn 0.000000 0.589753 -0.807583
vn -0.648869 -0.526699 -0.549142
vn -0.648869 -0.526699 -0.549142
vn -0.648869 -0.526699 -0.549142
vn -0.648869 -0.526699 0.549142
vn -0.648869 -0.526699 0.549142
vn -0.648869 -0.526699 0.549142
vn -0.975601 0.219550 0.000000
vn -0.975601 0.219550 0.000000
vn -0.975601 0.219550 0.000000
vn -0.807583 0.589753 0.000000
vn -0.807583 0.589753 0.000000
vn -0.807583 0.589753 0.000000
vn -0.549142 -0.526699 0.648869
vn -0.549142 -0.526699 0.648869
vn -0.549142 -0.526699 0.648869
vn 0.549142 -0.526699 0.648869
vn 0.549142 -0.526699 0.648869
vn 0.549142 -0.526699 0.648869
vn 0.000000 0.219550 0.975601
vn 0.000000 0.219550 0.975601
vn 0.000000 0.219550 0.975601
vn 0.000000 0.589753 0.807583
vn 0.000000 0.589753 0.807583
vn 0.000000 0.589753 0.807583
vn 0.526699 -0.549142 0.648869
vn 0.526699 -0.549142 0.648869
vn 0.526699 -0.549142 0.648869
vn 0.526699 0.549142 0.648869
vn 0.526699 0.549142 0.648869
vn 0.526699 0.549142 0.648869
vn -0.219550 0.000000 0.975601
vn -0.219550 0.000000 0.975601
vn -0.219550 0.000000 0.975601
vn -0.589753 0.000000 0.807583
vn -0.589753 0.000000 0.807583
vn -0.589753 0.000000 0.807583
vn 0.526699 0.648869 0.549142
vn 0.526699 0.648869 0.549142
vn 0.526699 0.648869 0.549142
vn 0.526699 0.648869 -0.549142
vn 0.526699 0.648869 -0.549142
vn 0.526699 0.648869 -0.549142
vn -0.219550 0.975601 0.000000
vn -0.219550 0.975601 0.000000
vn -0.219550 0.975601 0.000000
vn -0.589753 0.807583 0.000000
vn -0.589753 0.807583 0.000000
vn -0.589753 0.807583 0.000000
vn 0.526699 0.549142 -0.648869
vn 0.526699 0.549142 -0.648869
vn 0.526699 0.549142 -0.648869
vn 0.526699 -0.549142 -0.648869
vn 0.526699 -0.549142 -0.648869
vn 0.526699 -0.549142 -0.648869
vn -0.219550 0.000000 -0.975601
vn -0.219550 0.000000 -0.975601
vn -0.219550 0.000000 -0.975601
vn -0.589753 0.000000 -0.807583
vn -0.589753 0.000000 -0.807583
vn -0.589753 0.000000 -0.807583
vn 0.526699 -0.648869 -0.549142
vn 0.526699 -0.648869 -0.549142
vn 0.526699 -0.648869 -0.549142
vn 0.526699 -0.648869 0.549142
vn 0.526699 -0.648869 0.549142
vn 0.526699 -0.648869 0.549142
vn -0.219550 -0.975601 0.000000
vn -0.219550 -0.975601 0.000000
vn -0.219550 -0.975601 0.000000
vn -0.589753 -0.807583 0.000000
vn -0.589753 -0.807583 0.000000
vn -0.589753 -0.807583 0.000000
vn -0.526699 -0.648869 0.549142
vn -0.526699 -0.648869 0.549142
vn -0.526699 -0.648869 0.549142
vn -0.526699 -0.648869 -0.549142
vn -0.526699 -0.648869 -0.549142
vn -0.526699 -0.648869 -0.549142
vn 0.219550 -0.975601 0.000000
vn 0.219550 -0.975601 0.000000
vn 0.219550 -0.975601 0.000000
vn 0.589753 -0.807583 0.000000
vn 0.589753 -0.807583 0.000000
vn 0.589753 -0.807583 0.000000
vn -0.526699 -0.549142 -0.648869
vn -0.526699 -0.549142 -0.648869
vn -0.526699 -0.549142 -0.648869
vn -0.526699 0.549142 -0.648869
vn -0.526699 0.549142 -0.648869
vn -0.526699 0.549142 -0.648869
vn 0.219550 0.000000 -0.975601
vn 0.219550 0.000000 -0.975601
vn 0.219550 0.000000 -0.975601
vn 0.589753 0.000000 -0.807583
vn 0.589753 0.000000 -0.807583
vn 0.589753 0.000000 -0.807583
vn -0.526699 0.648869 -0.549142
vn -0.526699 0.648869 -0.549142
vn -0.526699 0.648869 -0.549142
vn -0.526699 0.648869 0.549142
vn -0.526699 0.648869 0.549142
vn -0.526699 0.648869 0.549142
vn 0.219550 0.975601 0.000000
vn 0.219550 0.975601 0.000000
vn 0.219550 0.975601 0.000000
vn 0.589753 0.807583 0.000000
vn 0.589753 0.807583 0.000000
vn 0.589753 0.807583 0.000000
vn -0.526699 0.549142 0.648869
vn -0.526699 0.549142 0.648869
vn -0.526699 0.549142 0.648869
vn -0.526699 -0.549142 0.648869
vn -0.526699 -0.549142 0.648869
vn -0.526699 -0.549142 0.648869
vn 0.219550 0.000000 0.975601
vn 0.219550 0.000000 0.975601
vn 0.219550 0.000000 0.975601
vn 0.589753 0.000000 0.807583
vn 0.589753 0.000000 0.807583
vn 0.589753 0.000000 0.807583
f 1/1/1 15/15/2 16/16/3
f 15/15/4 4/4/5 17/17/6
f 15/15/7 17/17/8 16/16/9
f 16/16/10 17/17/11 9/9/12
f 4/4/13 18/18/14 17/17/15
f 18/18/16 3/3/17 19/19/18
f 18/18/19 19/19/20 17/17/21
f 17/17/22 19/19/23 9/9/24
f 3/3/25 20/20/26 19/19/27
f 20/20/28 2/2/29 21/21/30
f 20/20/31 21/21/32 19/19/33
f 19/19/34 21/21/35 9/9/36
f 2/2/37 22/22/38 21/21/39
f 22/22/40 1/1/41 16/16/42
f 22/22/43 16/16/44 21/21/45
f 21/21/46 16/16/47 9/9/48
f 8/51/49 23/23/50 24/52/51
f 23/23/52 5/5/53 25/25/54
f 23/23/55 25/25/56 24/52/57
f 24/52/58 25/25/59 10/10/60
f 5/5/61 26/26/62 25/25/63
f 26/26/64 6/6/65 27/27/66
f 26/26/67 27/27/68 25/25/69
f 25/25/70 27/27/71 10/10/72
f 6/6/73 28/28/74 27/27/75
f 28/28/76 7/53/77 29/54/78
f 28/28/79 29/54/80 27/27/81
f 27/27/82 29/54/83 10/10/84
f 7/7/85 30/30/86 29/29/87
f 30/30/88 8/8/89 24/24/90
f 30/30/91 24/24/92 29/29/93
f 29/54/94 24/52/95 10/10/96
f 3/3/97 31/31/98 32/32/99
f 31/31/100 7/7/101 33/33/102
f 31/31/103 33/33/104 32/32/105
f 32/32/106 33/33/107 11/11/108
f 7/53/109 28/28/110 33/55/111
f 28/28/112 6/6/113 34/34/114
f 28/28/115 34/34/116 33/55/117
f 33/55/118 34/34/119 11/11/120
f 6/6/121 35/35/122 34/34/123
f 35/35/124 2/2/125 36/36/126
f 35/35/127 36/36/128 34/34/129
f 34/34/130 36/36/131 11/11/132
f 2/2/133 20/20/134 36/36/135
f 20/20/136 3/3/137 32/32/138
f 20/20/139 32/32/140 36/36/141
f 36/36/142 32/32/143 11/11/144
f 1/1/145 37/37/146 38/38/147
f 37/37/148 5/5/149 39/39/150
f 37/37/151 39/39/152 38/38/153
f 38/38/154 39/39/155 12/12/156
f 5/5/157 23/23/158 39/39/159
f 23/23/160 8/51/161 40/56/162
f 23/23/163 40/56/164 39/39/165
f 39/39/166 40/56/167 12/12/168
f 8/8/169 41/41/170 40/40/171
f 41/41/172 4/4/173 42/42/174
f 41/41/175 42/42/176 40/40/177
f 40/40/178 42/42/179 12/12/180
f 4/4/181 15/15/182 42/42/183
f 15/15/184 1/1/185 38/38/186
f 15/15/187 38/38/188 42/42/189
f 42/42/190 38/38/191 12/12/192
f 3/3/193 18/18/194 43/43/195
f 18/18/196 4/4/197 44/44/198
f 18/18/199 44/44/200 43/43/201
f 43/43/202 44/44/203 13/13/204
f 4/4/205 41/41/206 44/44/207
f 41/41/208 8/8/209 45/45/210
f 41/41/211 45/45/212 44/44/213
f 44/44/214 45/45/215 13/13/216
f 8/8/217 30/30/218 45/45/219
f 30/30/220 7/7/221 46/46/222
f 30/30/223 46/46/224 45/45/225
f 45/45/226 46/46/227 13/13/228
f 7/7/229 31/31/230 46/46/231
f 31/31/232 3/3/233 43/43/234
f 31/31/235 43/43/236 46/46/237
f 46/46/238 43/43/239 13/13/240
f 2/2/241 35/35/242 47/47/243
f 35/35/244 6/6/245 48/48/246
f 35/35/247 48/48/248 47/47/249
f 47/47/250 48/48/251 14/14/252
f 6/6/253 26/26/254 48/48/255
f 26/26/256 5/5/257 49/49/258
f 26/26/259 49/49/260 48/48/261
f 48/48/262 49/49/263 14/14/264
f 5/5/265 37/37/266 49/49/267
f 37/37/268 1/1/269 50/50/270
f 37/37/271 50/50/272 49/49/273
f 49/49/274 50/50/275 14/14/276
f 1/1/277 22/22/278 50/50/279
f 22/22/280 2/2/281 47/47/282
f 22/22/283 47/47/284 50/50/285
f 50/50/286 47/47/287 14/14/288
