# This file uses centimeters as units for non-parametric coordinates.

v 0.000000 0.000000 0.034000
v 0.034000 0.000000 0.000000
v 0.000000 0.034000 0.000000
v -0.034000 0.000000 0.000000
v 0.000000 -0.034000 0.000000
v 0.000000 0.000000 -0.034000
v 0.052208 0.052208 0.000000
v 0.052208 0.000000 0.052208
v 0.000000 0.052208 0.052208
v -0.052208 0.052208 0.000000
v -0.052208 0.000000 0.052208
v -0.052208 -0.052208 0.000000
v 0.000000 -0.052208 0.052208
v 0.052208 -0.052208 0.000000
v 0.000000 0.052208 -0.052208
v 0.052208 0.000000 -0.052208
v -0.052208 0.000000 -0.052208
v 0.000000 -0.052208 -0.052208
vt 0.500000 0.500000
vt 0.750000 0.500000
vt 0.500000 1.000000
vt 0.250000 0.500000
vt 0.500000 1.000000
vt 1.000000 0.500000
vt 0.750000 0.750000
vt 0.625000 0.500000
vt 0.500000 0.750000
vt 0.250000 0.750000
vt 0.375000 0.500000
vt 0.250000 0.250000
vt 0.500000 0.250000
vt 0.750000 0.250000
vt 1.000000 0.750000
vt 0.875000 0.500000
vt 0.125000 0.500000
vt 1.000000 0.250000
vt 1.125000 0.500000
vt 1.250000 0.750000
vt 1.250000 0.250000
vn 0.896845 -0.312785 -0.312784
vn 0.896845 -0.312785 -0.312784
vn 0.896845 -0.312785 -0.312784
vn -0.312784 0.896845 -0.312785
vn -0.312784 0.896845 -0.312785
vn -0.312784 0.896845 -0.312785
vn 0.577350 0.577350 0.577350
vn 0.577350 0.577350 0.577350
vn 0.577350 0.577350 0.577350
vn -0.312785 -0.312784 0.896845
vn -0.312785 -0.312784 0.896845
vn -0.312785 -0.312784 0.896845
vn 0.312784 0.896845 -0.312785
vn 0.312784 0.896845 -0.312785
vn 0.312784 0.896845 -0.312785
vn -0.896845 -0.312785 -0.312784
vn -0.896845 -0.312785 -0.312784
vn -0.896845 -0.312785 -0.312784
vn -0.577350 0.577350 0.577350
vn -0.577350 0.577350 0.577350
vn -0.577350 0.577350 0.577350
vn 0.312785 -0.312784 0.896845
vn 0.312785 -0.312784 0.896845
vn 0.312785 -0.312784 0.896845
vn -0.896845 0.312785 -0.312784
vn -0.896845 0.312785 -0.312784
vn -0.896845 0.312785 -0.312784
vn 0.312784 -0.896845 -0.312785
vn 0.312784 -0.896845 -0.312785
vn 0.312784 -0.896845 -0.312785
vn -0.577350 -0.577350 0.577350
vn -0.577350 -0.577350 0.577350
vn -0.577350 -0.577350 0.577350
vn 0.312785 0.312784 0.896845
vn 0.312785 0.312784 0.896845
vn 0.312785 0.312784 0.896845
vn -0.312785 0.312784 0.896845
vn -0.312785 0.312784 0.896845
vn -0.312785 0.312784 0.896845
vn -0.312784 -0.896845 -0.312785
vn -0.312784 -0.896845 -0.312785
vn -0.312784 -0.896845 -0.312785
vn 0.577350 -0.577350 0.577350
vn 0.577350 -0.577350 0.577350
vn 0.577350 -0.577350 0.577350
vn 0.896845 0.312785 -0.312784
vn 0.896845 0.312785 -0.312784
vn 0.896845 0.312785 -0.312784
vn -0.312785 -0.312784 -0.896845
vn -0.312785 -0.312784 -0.896845
vn -0.312785 -0.312784 -0.896845
vn -0.312784 0.896845 0.312785
vn -0.312784 0.896845 0.312785
vn -0.312784 0.896845 0.312785
vn 0.577350 0.577350 -0.577350
vn 0.577350 0.577350 -0.577350
vn 0.577350 0.577350 -0.577350
vn 0.896845 -0.312785 0.312784
vn 0.896845 -0.312785 0.312784
vn 0.896845 -0.312785 0.312784
vn 0.312785 -0.312784 -0.896845
vn 0.312785 -0.312784 -0.896845
vn 0.312785 -0.312784 -0.896845
vn -0.896845 -0.312785 0.312784
vn -0.896845 -0.312785 0.312784
vn -0.896845 -0.312785 0.312784
vn -0.577350 0.577350 -0.577350
vn -0.577350 0.577350 -0.577350
vn -0.577350 0.577350 -0.577350
vn 0.312784 0.896845 0.312785
vn 0.312784 0.896845 0.312785
vn 0.312784 0.896845 0.312785
vn 0.312785 0.312784 -0.896845
vn 0.312785 0.312784 -0.896845
vn 0.312785 0.312784 -0.896845
vn 0.312784 -0.896845 0.312785
vn 0.312784 -0.896845 0.312785
vn 0.312784 -0.896845 0.312785
vn -0.577350 -0.577350 -0.577350
vn -0.577350 -0.577350 -0.577350
vn -0.577350 -0.577350 -0.577350
vn -0.896845 0.312785 0.312784
vn -0.896845 0.312785 0.312784
vn -0.896845 0.312785 0.312784
vn -0.312785 0.312784 -0.896845
vn -0.312785 0.312784 -0.896845
vn -0.312785 0.312784 -0.896845
vn 0.896845 0.312785 0.312784
vn 0.896845 0.312785 0.312784
vn 0.896845 0.312785 0.312784
vn 0.577350 -0.577350 -0.577350
vn 0.577350 -0.577350 -0.577350
vn 0.577350 -0.577350 -0.577350
vn -0.312784 -0.896845 0.312785
vn -0.312784 -0.896845 0.312785
vn -0.312784 -0.896845 0.312785
f 2/2/1 7/7/2 8/8/3
f 7/7/4 3/3/5 9/9/6
f 7/7/7 9/9/8 8/8/9
f 8/8/10 9/9/11 1/1/12
f 3/3/13 10/10/14 9/9/15
f 10/10/16 4/4/17 11/11/18
f 10/10/19 11/11/20 9/9/21
f 9/9/22 11/11/23 1/1/24
f 4/4/25 12/12/26 11/11/27
f 12/12/28 5/5/29 13/13/30
f 12/12/31 13/13/32 11/11/33
f 11/11/34 13/13/35 1/1/36
f 1/1/37 13/13/38 8/8/39
f 13/13/40 5/5/41 14/14/42
f 13/13/43 14/14/44 8/8/45
f 8/8/46 14/14/47 2/2/48
f 6/6/49 15/15/50 16/16/51
f 15/15/52 3/3/53 7/7/54
f 15/15/55 7/7/56 16/16/57
f 16/16/58 7/7/59 2/2/60
f 6/6/61 17/19/62 15/15/63
f 17/17/64 4/4/65 10/10/66
f 17/19/67 10/20/68 15/15/69
f 15/15/70 10/20/71 3/3/72
f 6/6/73 18/18/74 17/19/75
f 18/18/76 5/5/77 12/21/78
f 18/18/79 12/21/80 17/19/81
f 17/17/82 12/12/83 4/4/84
f 6/6/85 16/16/86 18/18/87
f 16/16/88 2/2/89 14/14/90
f 16/16/91 14/14/92 18/18/93
f 18/18/94 14/14/95 5/5/96
v 0.000000 0.000000 0.034000
v 0.034000 0.000000 0.000000
v 0.000000 0.034000 0.000000
v -0.034000 0.000000 0.000000
v 0.000000 -0.034000 0.000000
v 0.000000 0.000000 -0.034000
v 0.052208 0.052208 0.000000
v 0.052208 0.000000 0.052208
v 0.000000 0.052208 0.052208
v -0.052208 0.052208 0.000000
v -0.052208 0.000000 0.052208
v -0.052208 -0.052208 0.000000
v 0.000000 -0.052208 0.052208
v 0.052208 -0.052208 0.000000
v 0.000000 0.052208 -0.052208
v 0.052208 0.000000 -0.052208
v -0.052208 0.000000 -0.052208
v 0.000000 -0.052208 -0.052208
vt 0.500000 0.500000
vt 0.750000 0.500000
vt 0.500000 1.000000
vt 0.250000 0.500000
vt 0.500000 1.000000
vt 1.000000 0.500000
vt 0.750000 0.750000
vt 0.625000 0.500000
vt 0.500000 0.750000
vt 0.250000 0.750000
vt 0.375000 0.500000
vt 0.250000 0.250000
vt 0.500000 0.250000
vt 0.750000 0.250000
vt 1.000000 0.750000
vt 0.875000 0.500000
vt 0.125000 0.500000
vt 1.000000 0.250000
vt 1.125000 0.500000
vt 1.250000 0.750000
vt 1.250000 0.250000
vn 0.896845 -0.312785 -0.312784
vn 0.896845 -0.312785 -0.312784
vn 0.896845 -0.312785 -0.312784
vn -0.312784 0.896845 -0.312785
vn -0.312784 0.896845 -0.312785
vn -0.312784 0.896845 -0.312785
vn 0.577350 0.577350 0.577350
vn 0.577350 0.577350 0.577350
vn 0.577350 0.577350 0.577350
vn -0.312785 -0.312784 0.896845
vn -0.312785 -0.312784 0.896845
vn -0.312785 -0.312784 0.896845
vn 0.312784 0.896845 -0.312785
vn 0.312784 0.896845 -0.312785
vn 0.312784 0.896845 -0.312785
vn -0.896845 -0.312785 -0.312784
vn -0.896845 -0.312785 -0.312784
vn -0.896845 -0.312785 -0.312784
vn -0.577350 0.577350 0.577350
vn -0.577350 0.577350 0.577350
vn -0.577350 0.577350 0.577350
vn 0.312785 -0.312784 0.896845
vn 0.312785 -0.312784 0.896845
vn 0.312785 -0.312784 0.896845
vn -0.896845 0.312785 -0.312784
vn -0.896845 0.312785 -0.312784
vn -0.896845 0.312785 -0.312784
vn 0.312784 -0.896845 -0.312785
vn 0.312784 -0.896845 -0.312785
vn 0.312784 -0.896845 -0.312785
vn -0.577350 -0.577350 0.577350
vn -0.577350 -0.577350 0.577350
vn -0.577350 -0.577350 0.577350
vn 0.312785 0.312784 0.896845
vn 0.312785 0.312784 0.896845
vn 0.312785 0.312784 0.896845
vn -0.312785 0.312784 0.896845
vn -0.312785 0.312784 0.896845
vn -0.312785 0.312784 0.896845
vn -0.312784 -0.896845 -0.312785
vn -0.312784 -0.896845 -0.312785
vn -0.312784 -0.896845 -0.312785
vn 0.577350 -0.577350 0.577350
vn 0.577350 -0.577350 0.577350
vn 0.577350 -0.577350 0.577350
vn 0.896845 0.312785 -0.312784
vn 0.896845 0.312785 -0.312784
vn 0.896845 0.312785 -0.312784
vn -0.312785 -0.312784 -0.896845
vn -0.312785 -0.312784 -0.896845
vn -0.312785 -0.312784 -0.896845
vn -0.312784 0.896845 0.312785
vn -0.312784 0.896845 0.312785
vn -0.312784 0.896845 0.312785
vn 0.577350 0.577350 -0.577350
vn 0.577350 0.577350 -0.577350
vn 0.577350 0.577350 -0.577350
vn 0.896845 -0.312785 0.312784
vn 0.896845 -0.312785 0.312784
vn 0.896845 -0.312785 0.312784
vn 0.312785 -0.312784 -0.896845
vn 0.312785 -0.312784 -0.896845
vn 0.312785 -0.312784 -0.896845
vn -0.896845 -0.312785 0.312784
vn -0.896845 -0.312785 0.312784
vn -0.896845 -0.312785 0.312784
vn -0.577350 0.577350 -0.577350
vn -0.577350 0.577350 -0.577350
vn -0.577350 0.577350 -0.577350
vn 0.312784 0.896845 0.312785
vn 0.312784 0.896845 0.312785
vn 0.312784 0.896845 0.312785
vn 0.312785 0.312784 -0.896845
vn 0.312785 0.312784 -0.896845
vn 0.312785 0.312784 -0.896845
vn 0.312784 -0.896845 0.312785
vn 0.312784 -0.896845 0.312785
vn 0.312784 -0.896845 0.312785
vn -0.577350 -0.577350 -0.577350
vn -0.577350 -0.577350 -0.577350
vn -0.577350 -0.577350 -0.577350
vn -0.896845 0.312785 0.312784
vn -0.896845 0.312785 0.312784
vn -0.896845 0.312785 0.312784
vn -0.312785 0.312784 -0.896845
vn -0.312785 0.312784 -0.896845
vn -0.312785 0.312784 -0.896845
vn 0.896845 0.312785 0.312784
vn 0.896845 0.312785 0.312784
vn 0.896845 0.312785 0.312784
vn 0.577350 -0.577350 -0.577350
vn 0.577350 -0.577350 -0.577350
vn 0.577350 -0.577350 -0.577350
vn -0.312784 -0.896845 0.312785
vn -0.312784 -0.896845 0.312785
vn -0.312784 -0.896845 0.312785
f 20/23/97 25/28/98 26/29/99
f 25/28/100 21/24/101 27/30/102
f 25/28/103 27/30/104 26/29/105
f 26/29/106 27/30/107 19/22/108
f 21/24/109 28/31/110 27/30/111
f 28/31/112 22/25/113 29/32/114
f 28/31/115 29/32/116 27/30/117
f 27/30/118 29/32/119 19/22/120
f 22/25/121 30/33/122 29/32/123
f 30/33/124 23/26/125 31/34/126
f 30/33/127 31/34/128 29/32/129
f 29/32/130 31/34/131 19/22/132
f 19/22/133 31/34/134 26/29/135
f 31/34/136 23/26/137 32/35/138
f 31/34/139 32/35/140 26/29/141
f 26/29/142 32/35/143 20/23/144
f 24/27/145 33/36/146 34/37/147
f 33/36/148 21/24/149 25/28/150
f 33/36/151 25/28/152 34/37/153
f 34/37/154 25/28/155 20/23/156
f 24/27/157 35/40/158 33/36/159
f 35/38/160 22/25/161 28/31/162
f 35/40/163 28/41/164 33/36/165
f 33/36/166 28/41/167 21/24/168
f 24/27/169 36/39/170 35/40/171
f 36/39/172 23/26/173 30/42/174
f 36/39/175 30/42/176 35/40/177
f 35/38/178 30/33/179 22/25/180
f 24/27/181 34/37/182 36/39/183
f 34/37/184 20/23/185 32/35/186
f 34/37/187 32/35/188 36/39/189
f 36/39/190 32/35/191 23/26/192
